<?xml version="1.0" encoding="UTF-8"?>
<svg id="Layer_1" data-name="Layer 1" xmlns="http://www.w3.org/2000/svg" viewBox="0 0 1500 1500">
  <path d="M691.39,487c-1.49-.93-3.16-2.04-4.83-2.97,1.67,1.11,3.34,2.23,4.83,3.16,2.97,2.04,5.39,3.53,7.62,4.46-2.23-1.11-4.64-2.6-7.62-4.64ZM760.49,586.75c7.06,4.27,14.67,8.17,22.48,11.33-7.8-3.34-15.42-7.06-22.48-11.33ZM807.11,606.62c8.17,2.41,16.53,4.09,24.89,5.39-8.36-1.3-16.72-3.16-24.89-5.39Z"/>
  <path d="M912.61,742.03c6.87,6.5,14.49,12.44,22.48,17.27-7.99-5.02-15.42-10.77-22.48-17.27ZM985.98,778.62c.74,0,1.3.19,1.86.37,1.86.19,3.72.56,5.57.56-.93,0-1.86-.19-2.6-.37-1.67-.19-3.16-.37-4.83-.56ZM1182.13,604.4c4.09.37,7.99.37,11.89,0l1.49-.19c-4.09.56-8.54.56-13.37.19Z"/>
  <g>
    <path d="M966.87,773.8c-1.25-.41-2.49-.83-3.74-1.25,1.24.44,2.48.85,3.74,1.25ZM962.39,772.31c.25.08.5.17.75.25-3.27-1.15-6.51-2.36-9.66-3.78,2.97,1.3,5.94,2.41,8.92,3.53ZM967.4,773.98c2.97.93,6.13,1.86,9.29,2.6-3.32-.77-6.58-1.75-9.82-2.78.18.06.35.12.53.18ZM962.39,772.31c.25.08.5.17.75.25-3.27-1.15-6.51-2.36-9.66-3.78,2.97,1.3,5.94,2.41,8.92,3.53ZM966.87,773.8c-1.25-.41-2.49-.83-3.74-1.25,1.24.44,2.48.85,3.74,1.25ZM967.4,773.98c2.97.93,6.13,1.86,9.29,2.6-3.32-.77-6.58-1.75-9.82-2.78.18.06.35.12.53.18Z"/>
    <path d="M1222.62,389.86c-2.79-1.49-5.76-2.41-8.54-3.34-.19-3.16-.74-6.5-1.49-10.03-20.99-83.59-87.86-131.32-162.9-115.9-5.94,1.11-12.07,3.53-20.25,7.43-3.16-3.71-6.31-7.24-8.73-10.22-12.44-14.3-19.69-22.66-24.33-27.12-28.98-27.3-57.58-48.66-85.07-63.9-27.68-15.23-54.61-24.15-80.43-27.12-71.88-7.99-141.91,27.68-208.4,106.25-60.92-11.7-125.01,13-157.14,62.97-6.31,9.85-10.03,20.99-13,29.9-.37.93-.74,2.04-1.11,3.16-.18,0-.37.18-.56.18-12.07,7.62-21.92,14.12-28.79,22.66-27.31,34.18-31.02,80.06-9.29,117.02,10.03,17.09,24.33,30.65,41.05,39.38-.19.74-.19,1.3-.37,2.04l-17.46,109.78-61.48-9.85c-8.92-1.49-17.83-2.23-26.75-2.23-80.61,0-151.57,58.7-164.57,140.79-14.67,91.2,47.37,176.83,138.57,191.5l61.48,9.85-17.46,109.59c-17.09,106.25,55.54,206.55,161.97,223.64l393.41,62.78c106.43,16.9,206.73-55.72,223.64-162.15l84.14-526.77c40.86-13.37,72.44-46.62,84.88-92.5,16.72-61.67-4.64-146.74-91.01-187.79ZM332.16,881.9c-51.45-8.17-86.37-56.65-78.2-108.1l.19-1.49c8.17-51.45,56.65-86.37,108.1-78.2l62.22,9.85-30.09,187.97-62.22-10.03ZM1073.46,1185.59c-10.77,67.24-73.93,113.12-141.17,102.35l-393.41-62.78c-67.05-10.77-112.93-74.11-102.16-141.17l87.67-549.43.56-3.34c1.11-.19,2.04-.56,3.16-.93,2.41-.56,4.64-1.49,7.06-2.41,4.83-1.86,9.66-4.09,14.67-6.31,11.7,9.84,23.4,18.39,36.78,22.48,20.8,6.13,41.79,3.53,55.54,1.86,2.04-.19,4.27-.56,6.31-.74,1.11.74,2.6,1.67,3.9,2.41,9.66,6.31,24.33,15.79,48.48,18.02,10.03.93,20.25-1.11,30.28-3.16,13.37,12.26,21.92,20.06,29.35,24.33,7.06,4.27,14.67,7.99,22.48,11.33,7.8,3.34,15.79,6.13,24.15,8.54,8.17,2.23,16.53,4.09,24.89,5.39,8.36,1.11,16.9,1.86,25.08,1.86,4.09,0,8.54-.37,14.12-1.3-.37,2.04-.74,3.9-1.11,5.94-4.46,24.15-6.32,45.51,11.33,81.36,7.99,16.16,18.57,30.46,31.2,42.16,7.06,6.5,14.49,12.26,22.48,17.27,2.79,1.67,5.57,3.34,8.54,4.83l6.69,3.34c.74.19,1.49.56,2.41,1.11.19,0,.56.19.74.19,2.97,1.3,5.94,2.41,8.92,3.53,1.67.56,3.34,1.11,5.02,1.67,2.97.93,6.13,1.86,9.29,2.6,1.67.37,3.34.93,5.2,1.11,2.79.74,5.94,1.11,8.92,1.49.74.19,1.67.37,2.6.37,2.6.37,5.02.56,7.62.74,6.5.56,13,.56,19.5.19h.19c3.9-.19,7.62-.56,11.33-1.11,7.06-.93,14.12-2.41,20.99-4.46,3.53-.93,6.87-2.04,10.4-3.34,1.86-.74,3.9-1.49,5.94-2.23,4.64-1.86,9.29-4.09,13.74-6.5,3.16-1.67,6.32-3.34,9.29-5.39,1.67-.93,3.34-2.04,4.83-3.16,2.04-1.3,3.9-2.79,5.94-4.27,2.97-2.23,5.76-4.46,8.54-6.87,9.1-7.99,17.09-16.9,24.15-26.75,1.3-1.86,2.6-3.72,3.9-5.57,2.41-3.72,4.64-7.8,6.87-11.89,1.67-2.97,3.16-6.13,4.46-9.29.19-.19.37-.56.37-.93.93-1.67,1.49-3.34,2.23-5.02l-80.24,501.88ZM1244.16,558.7c-2.79,10.4-14.3,41.61-48.66,45.51l-1.49.19c-3.9.37-7.8.37-11.89,0-2.23-.37-7.62-2.23-11.33-3.53-14.3-4.64-28.98-9.66-44.39-5.39-33.62,9.47-37.15,42.91-38.45,55.35-.19,1.67-.56,3.53-.56,4.64-13.56,36.96-45.51,51.64-70.95,53.12-30.65,1.86-56.84-13.37-70.4-40.68-8.54-17.27-7.62-22.1-5.02-36.22,1.67-9.1,3.72-20.25,3.72-34.92.19-3.16-.19-6.69-1.49-11.7-.37-.93-.56-2.23-1.12-3.34-.18-.74-.37-1.49-.74-2.23-1.11-3.16-2.6-6.69-4.64-10.96-3.16-6.87-6.5-12.63-10.4-17.27-.93-1.3-2.04-2.41-3.16-3.34-1.11-1.11-2.23-2.04-3.34-2.97-2.23-1.86-4.83-3.34-7.8-4.64-2.04-.93-3.9-1.67-5.94-2.04-1.12-.37-2.41-.56-3.72-.74-7.43-1.3-15.42-.37-25.26,1.11-2.6.37-5.39.74-8.36,1.3-3.72.74-9.47,1.67-11.89,1.86-19.87-.18-41.79-6.5-59.07-16.53-3.53-2.6-13.56-11.89-18.57-16.35-12.82-11.89-17.27-15.79-25.82-18.57-11.89-3.53-22.85-1.3-35.48,1.3-3.53.74-9.1,1.86-11.52,2.04-2.79-.37-5.02-.93-7.43-2.04-2.23-.93-4.64-2.41-7.62-4.46-1.49-.93-3.16-2.04-4.83-3.16-2.97-1.86-6.13-3.72-9.85-5.39-2.79-1.3-5.94-2.41-9.29-3.53-11.33-3.53-22.48-2.23-33.99-.74-8.54,1.11-19.32,2.41-25.63.74-4.27-2.04-13.74-10.4-17.64-13.93-7.8-6.87-13.56-11.89-22.29-14.67-16.35-4.83-30.09,1.3-47.36,9.29-3.53,1.67-9.47,4.27-12.07,5.2-2.23.37-4.27.37-6.13.37-16.9-.19-25.08-11.89-27.68-15.97-2.97-5.2-8.92-19.13,2.6-34.36,2.41-2.04,8.36-5.76,11.7-7.8,9.47-5.76,16.16-10.03,21.36-18.02,4.83-7.24,7.43-15.05,10.22-23.4,1.49-4.27,3.9-11.52,5.39-13.93,18.2-28.42,61.67-40.68,96.96-27.31l24.89,9.47,16.35-21.18c50.71-65.38,100.3-98.26,147.67-98.26,3.72,0,7.43.19,11.14.56,35.48,3.9,78.38,28.79,124.08,71.88,2.6,2.6,12.63,14.12,19.13,21.73,26.75,30.83,31.39,36.41,43.46,40.12,15.42,4.64,27.86-1.11,44.95-9.1,3.34-1.67,8.54-4.09,10.96-5.02,42.72-7.99,67.98,28.05,76.9,62.04,0,1.11,0,2.79.19,4.27.37,12.44.93,33.43,18.76,46.99,9.66,7.24,20.25,9.29,28.05,10.77,1.11.19,2.6.37,3.71.56,34.92,17.27,64.08,55.72,51.08,103.27Z"/>
  </g>
  <path d="M837.21,688.12l22.14,140.96c.97,6.2,5.82,11.06,12.02,12.05l140.91,22.5c13.85,2.21,16.78,20.85,4.27,27.2l-127.22,64.62c-5.59,2.84-8.72,8.96-7.74,15.15l22.14,140.96c2.18,13.85-14.65,22.4-24.55,12.47l-100.77-101.03c-4.43-4.44-11.21-5.52-16.8-2.68l-127.22,64.62c-12.5,6.35-25.83-7.01-19.45-19.49l64.94-127.06c2.85-5.58,1.79-12.37-2.64-16.81l-100.77-101.03c-9.9-9.93-1.32-26.73,12.53-24.52l140.91,22.5c6.19.99,12.32-2.12,15.17-7.71l64.94-127.06c6.38-12.49,25.01-9.51,27.19,4.34Z"/>
</svg>