<?xml version="1.0" encoding="UTF-8"?>
<svg id="Layer_1" data-name="Layer 1" xmlns="http://www.w3.org/2000/svg" viewBox="0 0 922.81 126.96">
  <defs>
    <style>
      .cls-1 {
        fill: #fff;
      }
    </style>
  </defs>
  <path class="cls-1" d="M25.84,11.54c1.59,0,2.93.07,4.03.18,1.1.12,2.14.61,3.11,1.47,1.59.98,2.6,1.86,3.02,2.65.43.8,1.13,1.62,2.11,2.47.85,2.45,2.14,3.94,3.85,4.49,1.71.55,3.3,1.44,4.76,2.66,1.47,1.22,2.9,2.72,4.31,4.49,1.4,1.77,2.84,3.64,4.31,5.59,1.47,1.96,2.87,3.85,4.21,5.68s2.69,3.36,4.03,4.58c1.83,2.08,3.39,4.24,4.67,6.5,1.28,2.26,3.33,4.12,6.14,5.59.73.61,2.14,2.02,4.21,4.21,2.08,2.2,4.37,4.56,6.87,7.06,2.5,2.5,4.92,4.74,7.24,6.69,2.32,1.95,4.15,2.93,5.5,2.93.85,0,1.44-.18,1.74-.55.3-.37.46-.83.46-1.38s-.09-1.1-.28-1.65c-.18-.55-.28-1.01-.28-1.37v-13.74c0-1.1.33-2.39,1.01-3.85.67-1.47,1.01-3.24,1.01-5.31v-15.39c-.49-.37-1.16-.97-2.02-1.83-.86-.85-1.71-1.74-2.57-2.66-.86-.92-1.68-1.74-2.47-2.47-.8-.73-1.37-1.1-1.74-1.1h-3.48c-.73,0-1.59-.21-2.56-.64-.98-.43-1.89-.95-2.75-1.56-.86-.61-1.56-1.19-2.11-1.74-.55-.55-.83-.95-.83-1.19v-5.68c0-1.22.28-2.2.83-2.93.55-.73,1.25-1.25,2.11-1.56.85-.3,1.77-.49,2.75-.55.98-.06,1.83-.09,2.56-.09h3.48c.85,0,1.99.09,3.39.28,1.4.18,2.87.37,4.4.55,1.53.18,2.99.37,4.4.55,1.4.18,2.66.28,3.76.28h25.47c2.44,0,4.73.55,6.87,1.65,2.14,1.1,3.21,2.93,3.21,5.5,0,.98-.06,1.8-.18,2.47-.12.67-.55,1.56-1.28,2.66-2.81,1.71-5.53,2.47-8.15,2.29-2.63-.18-5.16-.27-7.6-.27l-5.13,1.47h-3.11c-.98,0-1.8.7-2.47,2.1-.67,1.41-1.01,2.9-1.01,4.49v28.04c0,.73.24,1.84.73,3.3.49,1.47.73,2.57.73,3.3v10.26l-3.12,17.77c0,.73.15,1.71.46,2.93.3,1.22.67,2.47,1.1,3.76.43,1.28.79,2.5,1.1,3.66.3,1.16.46,2.11.46,2.84,0,.49-.03,1.35-.09,2.57-.06,1.22-.18,2.44-.37,3.67-.18,1.22-.49,2.29-.92,3.2-.43.92-1.01,1.37-1.74,1.37h-2.47c-1.16,0-2.35-.06-3.57-.18-1.22-.12-2.29-.31-3.21-.55-.92-.25-1.37-.55-1.37-.92-1.71-1.71-3.15-3.79-4.31-6.23-1.16-2.44-2.6-4.4-4.31-5.86-1.35-1.83-2.63-3.36-3.85-4.58-1.22-1.22-2.41-2.39-3.57-3.48-1.16-1.1-2.26-2.26-3.3-3.48-1.04-1.22-1.92-2.69-2.66-4.4-1.35-3.05-3.42-5.99-6.23-8.8-2.81-2.81-5.77-5.62-8.89-8.43-3.11-2.81-6.17-5.65-9.16-8.52-3-2.87-5.41-5.83-7.24-8.89,0-.37-.18-.95-.55-1.74-.37-.8-.86-1.56-1.47-2.29-.61-.73-1.31-1.4-2.11-2.02-.8-.61-1.62-.92-2.47-.92-2.32,0-3.48,1.83-3.48,5.5v20.89l1.47,10.26c0,2.44-.09,4.12-.28,5.04-.18.92-.28,2.29-.28,4.12,0,2.32.7,4.06,2.11,5.22,1.4,1.17,3.14,2.05,5.22,2.66,2.08.61,4.31,1.07,6.69,1.37,2.38.31,4.61.7,6.69,1.19,2.08.49,3.82,1.25,5.22,2.29,1.4,1.04,2.11,2.54,2.11,4.49,0,.98-.31,1.56-.92,1.74-.61.18-1.35.27-2.2.27h-20.89l-11.73,1.65c-.98-.86-2.2-1.35-3.66-1.47-1.47-.12-2.63-.18-3.48-.18h-3.48c-2.57,0-4.46-.34-5.68-1.01-1.22-.67-2.75-1.01-4.58-1.01h-6.6l-1.47,2.02H.37c0-.49-.03-1.32-.09-2.47-.06-1.16-.09-2.29-.09-3.39-.12-1.34-.18-2.75-.18-4.22,0-.97.55-1.83,1.65-2.56,1.1-.73,2.08-1.1,2.93-1.1h3.94c.67,0,1.1-.03,1.28-.09.18-.06.3-.09.37-.09.06,0,.43-.03,1.1-.09.67-.06,1.83-.09,3.48-.09h7.61c.85,0,1.59-.28,2.2-.83.61-.55,1.1-1.19,1.47-1.92s.61-1.49.73-2.29c.12-.79.18-1.37.18-1.74-.25-.48-.43-.97-.55-1.47-.37-.73-.55-1.59-.55-2.56,0-1.84-.09-3.33-.27-4.49-.18-1.16-.43-2.17-.73-3.02-.31-.85-.55-1.62-.73-2.29-.18-.67-.27-1.5-.27-2.47,0-.85.09-1.89.27-3.12.18-1.22.4-2.32.64-3.3.37-1.22.73-2.44,1.1-3.67v-12.28c0-.73-.09-1.59-.27-2.57-.18-.98-.77-1.95-1.74-2.93,0-1.47.3-2.38.92-2.75.37-.25.73-.37,1.1-.37-.12-.48-.37-1.16-.73-2.01-.37-.85-.76-1.71-1.19-2.57-.43-.85-.8-1.65-1.1-2.38-.31-.73-.46-1.29-.46-1.65,0-2.57-.98-4.52-2.93-5.86-1.95-1.34-4.12-2.63-6.5-3.85s-4.55-2.63-6.51-4.22c-1.95-1.59-2.93-3.91-2.93-6.96.49-1.22.98-2.32,1.47-3.3.49-.85,1.01-1.65,1.56-2.38.55-.73,1.25-1.1,2.11-1.1h17.22Z"/>
  <path class="cls-1" d="M206.15,11.54l6.6,1.65h3.66c1.59.49,3.05.98,4.4,1.47,1.22.49,2.38.95,3.48,1.37,1.1.43,1.83.82,2.2,1.19,1.83.98,3.94,1.8,6.32,2.47,2.38.67,4.37,1.86,5.96,3.57.98.86,1.98,2.32,3.02,4.4,1.03,2.08,2.04,3.55,3.02,4.4,4.15,3.55,6.81,6.94,7.97,10.17,1.16,3.24,1.74,6.14,1.74,8.7l-.55,12.1v5.13c0,1.35-.52,3.36-1.56,6.05-1.04,2.69-2.26,5.5-3.66,8.43-1.41,2.93-2.72,5.65-3.94,8.15-1.22,2.5-2.02,4.12-2.38,4.86-.86,2.57-2.35,4.67-4.49,6.32-2.14,1.65-4.25,2.97-6.32,3.94-3.3,2.57-6.38,4.89-9.25,6.96-2.87,2.08-6.08,3.12-9.62,3.12-1.47,0-2.9-.15-4.31-.46-1.41-.31-3.33-.46-5.77-.46-.49,0-1.1.03-1.83.09-.73.06-1.53.15-2.38.27-.98.12-1.96.18-2.93.18h-3.11c-.98,0-2.23-.18-3.76-.55s-2.96-.85-4.31-1.47c-1.59-.61-3.3-1.34-5.13-2.2-3.3-1.47-6.66-3.08-10.08-4.86-3.42-1.77-6.17-4.73-8.25-8.89-2.56-6.11-4.92-12.46-7.05-19.06-2.14-6.6-3.21-12.95-3.21-19.06,0-1.22.12-2.32.37-3.3.24-.97.55-1.98.92-3.02.37-1.03.79-2.1,1.28-3.2.49-1.1.98-2.5,1.47-4.21,0-1.84.28-3.54.83-5.13.55-1.59,1.31-3.3,2.29-5.13,0-.37.55-1.52,1.65-3.48,1.1-1.95,2.44-4.03,4.03-6.23,1.59-2.2,3.27-4.18,5.04-5.96,1.77-1.77,3.27-2.65,4.49-2.65l5.13-2.02c1.59,0,3.02-.06,4.31-.18,1.28-.12,2.59-.55,3.94-1.28,1.34-.61,2.63-1.13,3.85-1.56,1.22-.43,2.44-.64,3.66-.64h12.28ZM190.39,25.84c-2.08,0-4.15,1.4-6.23,4.22-2.08,2.81-3.94,6.02-5.59,9.62-1.65,3.6-3,7.06-4.03,10.35-1.04,3.3-1.56,5.44-1.56,6.41v14.29c0,1.71,1.07,4.31,3.21,7.79,2.14,3.48,4.79,6.96,7.97,10.45,3.17,3.48,6.56,6.57,10.17,9.25,3.6,2.69,6.87,4.03,9.8,4.03h3.48c2.57,0,5.34-.67,8.34-2.02,2.99-1.34,5.74-3.17,8.25-5.5,2.5-2.32,4.61-5.04,6.32-8.15,1.71-3.12,2.57-6.38,2.57-9.8v-17.22c0-2.57-.34-4.61-1.01-6.14-.67-1.53-1.56-2.99-2.66-4.4-1.1-1.4-2.38-2.99-3.85-4.76s-2.99-4.19-4.58-7.24c-.98-.73-2.05-1.65-3.21-2.75-1.16-1.1-2.38-2.14-3.66-3.12-1.28-.97-2.63-1.83-4.03-2.56-1.4-.73-2.72-1.1-3.94-1.1h-3.48c-.98,0-2.14-.06-3.48-.18-1.35-.12-2.69-.3-4.03-.55-1.47-.24-3.05-.55-4.76-.92Z"/>
  <path class="cls-1" d="M335.7,9.16c2.44,0,4.73.95,6.87,2.84,2.14,1.9,4.06,3.64,5.77,5.22.98,2.93,2.5,5.13,4.58,6.59.73.86,1.47,1.77,2.2,2.75s1.22,2.14,1.47,3.48c.49,0,.98.52,1.47,1.55.49,1.04.92,2.26,1.28,3.67.37,1.4.67,2.72.92,3.94.24,1.22.37,2.02.37,2.38,0,1.71-.31,3.6-.92,5.68-.61,2.08-1.37,4.15-2.29,6.23-.92,2.08-1.9,4.06-2.93,5.96-1.04,1.89-1.93,3.45-2.66,4.67-.49.86-1.13,1.53-1.92,2.02-.8.49-1.56.95-2.29,1.37-.73.43-1.37,1.01-1.92,1.74-.55.73-.82,1.71-.82,2.93,0,1.35.37,3.12,1.1,5.31.73,2.2,1.65,4.4,2.75,6.6s2.23,4.16,3.39,5.86c1.16,1.71,2.11,2.75,2.84,3.12,1.47.98,2.78,2.2,3.94,3.66,1.16,1.47,2.38,2.93,3.66,4.4,1.28,1.47,2.66,2.78,4.12,3.94,1.47,1.16,3.18,1.92,5.13,2.29.73.25,1.89.7,3.48,1.37,1.59.67,2.81,1.44,3.66,2.29.73.73,1.13,1.25,1.19,1.56.06.31-.03.95-.28,1.92-.37,1.34-1.25,2.32-2.66,2.93-1.41.61-2.93,1.01-4.58,1.19-1.65.18-3.15.24-4.49.18-1.34-.06-2.14-.15-2.38-.27-.86-.73-1.99-1.1-3.39-1.1s-2.54-.12-3.39-.37c-3.3-1.95-5.62-3.54-6.96-4.77-1.35-1.22-2.93-2.38-4.76-3.48-.73-.37-1.65-1.01-2.75-1.93-1.1-.92-2.29-1.98-3.57-3.2-1.28-1.22-2.57-2.5-3.85-3.85-1.28-1.34-2.47-2.57-3.57-3.67-1.47-1.83-2.72-3.6-3.76-5.31-1.04-1.71-1.96-3.33-2.75-4.86-.8-1.53-1.56-2.93-2.29-4.22-.73-1.28-1.53-2.29-2.38-3.02-1.71-.98-2.96-1.89-3.76-2.75-.79-.85-2.05-1.28-3.76-1.28-1.47,0-2.6.46-3.39,1.37s-1.4,1.99-1.83,3.2c-.43,1.22-.7,2.51-.83,3.85-.12,1.34-.18,2.44-.18,3.3l2.02,8.61v3.67c0,2.93.94,5.13,2.84,6.6,1.89,1.47,3.94,2.69,6.14,3.66,2.2.98,4.24,1.92,6.14,2.84,1.89.92,2.84,2.29,2.84,4.12,0,.85-.43,1.59-1.28,2.2-.86.61-1.65.92-2.38.92h-6.6l-10.26-1.47h-22.91c-.37,0-1.56-.09-3.57-.28-2.02-.18-4.16-.49-6.41-.92-2.26-.43-4.31-1.04-6.14-1.83-1.83-.79-2.75-1.86-2.75-3.21,0-.37.18-.73.55-1.1.37-.37.79-.73,1.28-1.1.49-.49,1.1-.92,1.83-1.29.37,0,.92.07,1.65.18.73.12,1.47.25,2.2.37.85.12,1.77.25,2.75.37h3.66c2.44,0,4.49-.7,6.14-2.11,1.65-1.4,2.47-2.9,2.47-4.49v-48.93l1.47-13.19c-.37-1.22-.61-2.69-.73-4.4-.12-1.71-.34-3.33-.64-4.86-.31-1.53-.86-2.9-1.65-4.12-.8-1.22-1.99-2.02-3.57-2.38h-7.15c-1.34,0-2.69-.12-4.03-.37-1.35-.24-2.6-.67-3.76-1.29-1.16-.61-2.11-1.47-2.84-2.56-.73-1.1-1.1-2.57-1.1-4.4,0-.37.28-.76.82-1.19.55-.43,1.13-.82,1.74-1.19.73-.48,1.59-.92,2.57-1.28l30.97-1.47h18.88c.37,0,1.03-.06,2.01-.18.98-.12,1.95-.3,2.93-.55,1.22-.24,2.5-.48,3.85-.73h7.15ZM318.29,27.85c-.49.12-1.04.25-1.65.37-.61.25-1.28.46-2.02.64s-1.53.58-2.38,1.19c-.86,0-1.68.4-2.47,1.19s-1.19,2.05-1.19,3.76v13.38c0,.98-.25,1.87-.73,2.66-.49.8-.73,1.56-.73,2.29l.73.37c.24.25.43.46.55.64.12.18.18.58.18,1.19-.37,1.22-.25,2.35.37,3.39.61,1.04,1.47,1.95,2.57,2.75,1.1.8,2.29,1.41,3.57,1.84,1.28.43,2.35.64,3.2.64,1.1-.48,2.2-.97,3.3-1.47.98-.37,1.86-.73,2.66-1.1.79-.37,1.49-.55,2.11-.55l3.66,1.47c1.59,0,2.93-.64,4.03-1.92,1.1-1.29,1.99-2.75,2.66-4.4.67-1.65,1.19-3.24,1.56-4.77.37-1.52.67-2.53.92-3.02l-1.1-5.13c0-.85-.09-1.68-.28-2.47-.18-.79-.76-1.68-1.74-2.66,0-.73-.09-1.83-.28-3.3-.18-1.47-.76-2.57-1.74-3.3-.37,0-1.25-.18-2.66-.55-1.41-.37-2.93-.79-4.58-1.29-1.65-.48-3.3-.92-4.95-1.28s-2.84-.55-3.57-.55Z"/>
  <path class="cls-1" d="M450.05,11.18h8.61c2.57,0,4.73,1.07,6.51,3.2,1.77,2.14,3.17,4.56,4.21,7.24,1.03,2.69,1.8,5.22,2.29,7.6.49,2.38.73,3.82.73,4.31,0,.98.06,1.74.18,2.29.12.55.3,1.07.55,1.56.24.49.49.92.73,1.28,0,.37-.06.8-.18,1.28-.25.86-.67,1.59-1.28,2.2,0,.85-.06,1.68-.18,2.47-.12.8-.55,1.19-1.28,1.19-.61,0-1.59-.7-2.93-2.11-1.34-1.4-2.75-2.96-4.21-4.67-1.71-2.07-3.6-4.4-5.68-6.96-1.34-.73-3.15-1.52-5.41-2.38-2.26-.85-4.43-1.65-6.5-2.38-2.57-.85-5.19-1.65-7.88-2.38-3.91,0-7.79.73-11.64,2.2-3.85,1.47-7.33,3.6-10.45,6.41-3.11,2.81-5.74,6.23-7.88,10.26-2.14,4.03-3.39,8.61-3.76,13.74,0,2.44-.25,4.4-.73,5.86-.49,1.47-.73,3.05-.73,4.76s.06,3.15.18,4.31c.12,1.17.55,2.6,1.28,4.31.85,2.56,2.08,5.31,3.66,8.24,1.59,2.93,3.45,5.65,5.59,8.15,2.14,2.51,4.55,4.58,7.24,6.23,2.69,1.65,5.56,2.47,8.61,2.47l6.6-2.2c1.71,0,3.57-.64,5.59-1.92s3.02-3.14,3.02-5.59v-3.66c-.25-1.47-.55-2.96-.92-4.49-.37-1.53-.92-3.09-1.65-4.67-.98-1.71-2.17-3.45-3.57-5.22-1.41-1.77-2.6-2.9-3.57-3.39-1.71-.61-2.56-1.47-2.56-2.57,0-.48.28-.88.82-1.19.55-.3,1.19-.52,1.93-.64.85-.12,1.83-.18,2.93-.18h20.34c.85,0,1.56-.06,2.11-.18.55-.12,1.13-.28,1.74-.46.61-.18,1.4-.37,2.38-.55.98-.18,2.32-.28,4.03-.28.85.25,1.65.55,2.38.92.61.25,1.19.62,1.74,1.1.55.49.82.98.82,1.47,0,.73-.31,1.92-.92,3.57-.61,1.65-1.28,2.47-2.02,2.47h-2.02c-2.56,0-4.67.98-6.32,2.93s-2.47,3.73-2.47,5.31v10.63c0,1.59-.25,2.81-.73,3.66-.49.86-.73,2.2-.73,4.03.24.98.43,1.95.55,2.93.12.85.15,1.8.09,2.84-.06,1.04-.27,1.99-.64,2.84,0,.86-.28,1.56-.83,2.11-.55.55-1.13,1.07-1.74,1.56-.73.49-1.59.98-2.56,1.47l-12.28,2.02h-2.93c-.49,0-1.25-.09-2.29-.28-1.04-.18-2.14-.43-3.3-.73-1.16-.31-2.38-.55-3.66-.73-1.28-.18-2.47-.27-3.57-.27h-4.95c-.61,0-1.47-.12-2.57-.37-1.1-.25-2.14-.61-3.11-1.1-1.83-.61-3.66-1.03-5.5-1.28-1.83-.25-3.24-.37-4.21-.37-.37-.48-.95-.88-1.74-1.19s-1.65-.64-2.56-1.01-1.77-.79-2.57-1.29c-.79-.48-1.37-1.16-1.74-2.02-.98-.37-2.23-1.62-3.76-3.76-1.53-2.14-3.02-4.55-4.49-7.24-1.47-2.69-2.75-5.41-3.85-8.16-1.1-2.75-1.65-5.04-1.65-6.87v-3.11c0-.98-.34-2.17-1.01-3.57-.67-1.4-1.01-2.59-1.01-3.57v-12.09c.73-1.95,1.4-3.79,2.02-5.5.49-1.47.94-2.96,1.38-4.49.43-1.53.64-2.78.64-3.76l1.47-3.12c0-2.69,1.04-5.56,3.11-8.61,2.08-3.05,4.55-5.92,7.42-8.61,2.87-2.69,5.86-4.92,8.98-6.69,3.11-1.77,5.77-2.66,7.97-2.66.98-.12,1.89-.24,2.75-.37l2.2-.37c.73-.12,1.34-.18,1.83-.18h2.02c1.83,0,3.14-.09,3.94-.28.79-.18,1.56-.43,2.29-.73.73-.3,1.62-.55,2.66-.73,1.03-.18,2.66-.27,4.86-.27h13.74Z"/>
  <path class="cls-1" d="M520.78,13.19c.73,0,1.44.06,2.11.18.67.12,1.47.22,2.38.28s2.02.15,3.3.27c1.28.12,2.96.18,5.04.18l6.05-1.47c.98-.24,1.89-.49,2.75-.73.73-.24,1.47-.42,2.2-.55s1.28-.18,1.65-.18c.85,0,1.92.31,3.21.92,1.28.61,2.41,1.28,3.39,2.02.85,1.59,1.4,3.48,1.65,5.68.24,2.2.73,4.1,1.47,5.68.37.37.79,1.07,1.28,2.11.49,1.04.98,2.05,1.47,3.02.49,1.35,1.1,2.69,1.83,4.03,0,2.32-1.53,3.48-4.58,3.48-.73,0-1.83-.58-3.3-1.74s-3.36-2.44-5.68-3.85c-2.32-1.4-5.07-2.69-8.25-3.85-3.18-1.16-6.96-1.74-11.36-1.74l-3.48.92c-.73,1.1-1.44,2.02-2.11,2.75-.67.73-1.01,1.35-1.01,1.84v1.65c-.25.98-.49,1.9-.73,2.75-.25.73-.43,1.47-.55,2.2-.12.73-.18,1.29-.18,1.65v13.19c0,1.83.37,3.57,1.1,5.22.73,1.65,1.89,2.47,3.48,2.47.37,0,.98-.06,1.83-.18.85-.12,1.77-.3,2.75-.55,1.1-.24,2.26-.48,3.48-.73h3.66c.98,0,1.86-.25,2.66-.73s1.56-1.01,2.29-1.56c.73-.55,1.44-1.07,2.11-1.56.67-.48,1.38-.73,2.11-.73.37,0,.79.25,1.28.73.49.49.98,1.04,1.47,1.65l1.83,2.2v12.09c0,3.42-1.53,5.13-4.58,5.13-1.35,0-2.5-.28-3.48-.83-.98-.55-1.83-1.13-2.57-1.74-1.34-.49-2.47-1.04-3.39-1.65-.92-.61-2.05-.92-3.39-.92h-6.6c-3.05,0-5.01.55-5.86,1.65-.86,1.1-1.28,3.3-1.28,6.59v4.58c.37,1.71.61,3.42.73,5.13.12,1.72.33,3.3.64,4.77.3,1.47.88,2.72,1.74,3.76.85,1.04,2.2,1.74,4.03,2.11h10.26c1.71,0,3.57-.33,5.59-1.01,2.02-.67,4.06-1.56,6.14-2.66,2.08-.73,4-1.4,5.77-2.02,1.77-.61,3.39-.92,4.86-.92.49.37.98.8,1.47,1.29.37.37.73.73,1.1,1.1.37.37.55.73.55,1.1,0,.86-.31,1.65-.92,2.38-.61.73-1.34,1.47-2.2,2.2-1.71,1.59-2.93,3.2-3.66,4.86s-1.44,3.18-2.11,4.58c-.67,1.4-1.5,2.57-2.47,3.48-.98.92-2.45,1.37-4.4,1.37-.73,0-1.41-.09-2.02-.28-.61-.18-1.25-.43-1.92-.73-.67-.31-1.47-.55-2.38-.73-.92-.18-2.05-.27-3.39-.27l-17.77.55-6.23,1.47h-15.21l-3.66,1.1-5.5.37c-.61,0-1.28-.25-2.02-.73s-1.41-1.07-2.02-1.74c-.61-.67-1.13-1.34-1.56-2.02-.43-.67-.64-1.19-.64-1.56,0-3.05,2.26-4.58,6.78-4.58.98-.37,1.95-.8,2.93-1.29,1.83-.85,3.36-1.47,4.58-1.83,2.56-.49,4.31-1.29,5.22-2.38.92-1.1,1.37-3.67,1.37-7.7,0-.61.21-1.25.64-1.92.43-.67.21-1.37-.64-2.11,0-.61-.06-1.25-.18-1.92-.12-.67-.31-1.31-.55-1.92-.25-.73-.49-1.52-.73-2.38v-14.66l1.47-12.83v-3.12c0-.73.09-1.22.28-1.47.18-.24.28-.73.28-1.47v-20.34c0-1.1-.61-1.99-1.83-2.66-1.22-.67-2.14-1.01-2.75-1.01h-5.13c-2.32,0-4-.98-5.04-2.93-1.04-1.95-1.56-4.22-1.56-6.78,0-.73.33-1.4,1.01-2.02.67-.61,1.37-.92,2.11-.92h9.71c.73,0,1.86-.09,3.39-.28,1.53-.18,3.45-.27,5.77-.27h12.64Z"/>
  <path class="cls-1" d="M588.57,27.49c0-1.95.33-3.64,1.01-5.04s1.59-2.66,2.75-3.76c1.16-1.1,2.47-2.14,3.94-3.12s2.99-1.95,4.58-2.93c3.3-2.08,6.32-3.79,9.07-5.13,2.75-1.34,6.14-2.02,10.17-2.02,2.56,0,4.82.03,6.78.09,1.95.07,3.97.89,6.05,2.47,1.71,1.35,2.9,2.81,3.57,4.4.67,1.59,1.01,3.55,1.01,5.86,0,1.22-.22,2.51-.64,3.85-.43,1.34-1.04,2.56-1.83,3.66-.8,1.1-1.77,1.99-2.93,2.66-1.16.67-2.41,1.01-3.76,1.01s-2.41-.33-3.21-1.01c-.8-.67-1.53-1.38-2.2-2.11-.67-.73-1.41-1.44-2.2-2.11-.8-.67-1.8-1.01-3.02-1.01-1.59,0-3.21.15-4.86.46-1.65.31-3.15.83-4.49,1.56-1.34.73-2.45,1.65-3.3,2.75-.86,1.1-1.28,2.44-1.28,4.03,0,1.47.49,2.51,1.47,3.12.98.61,2.17,1.04,3.57,1.29s2.9.49,4.49.73c1.59.25,3.05.73,4.4,1.47,3.3,1.71,6.14,3.24,8.52,4.58,2.38,1.35,5.1,3.05,8.15,5.13,1.1.62,2.08,1.13,2.93,1.56.85.43,1.68.82,2.47,1.19.79.37,1.62.8,2.47,1.28.85.49,1.83,1.16,2.93,2.02,3.54,2.81,6.38,5.65,8.52,8.52,2.14,2.87,3.21,6.63,3.21,11.27v4.21c0,1.47.24,2.78.73,3.94.49,1.16.73,2.54.73,4.12,0,2.57-.52,4.64-1.56,6.23-1.04,1.59-2.05,3.42-3.02,5.5-.25.98-.25,1.8,0,2.47.24.67.06,1.37-.55,2.11-.49,1.59-1.28,2.63-2.38,3.11-1.1.49-2.14,1.35-3.12,2.57-1.1.98-2.14,1.84-3.11,2.57-.98.73-1.96,1.44-2.93,2.11-.98.67-1.99,1.31-3.02,1.92-1.04.61-2.29,1.28-3.76,2.02-2.32,1.34-4.4,2.29-6.23,2.84-1.83.55-3.97,1.13-6.41,1.74-.86.25-1.59.64-2.2,1.19-.61.55-1.41.82-2.38.82-1.1,0-1.95-.09-2.56-.27-.61-.18-1.28-.27-2.02-.27-1.83,0-3.27.18-4.31.55-1.04.37-2.35.55-3.94.55-.98,0-1.74-.22-2.29-.64-.55-.43-1.32-.77-2.29-1.01-1.35-.49-2.54-.7-3.57-.64-1.04.06-2.23-.03-3.57-.28-1.35,0-2.45-.4-3.3-1.19-.86-.8-1.95-1.62-3.3-2.47-1.35-.73-2.63-1.25-3.85-1.56-1.22-.31-2.5-1.13-3.85-2.47-1.35-.73-2.08-1.68-2.2-2.84-.12-1.16-.55-2.41-1.28-3.76-.98-2.08-1.83-3.69-2.56-4.86-.73-1.16-1.1-2.96-1.1-5.41,0-3.54,1.34-6.63,4.03-9.25,2.69-2.62,5.92-3.94,9.71-3.94,2.32,0,4.52.52,6.6,1.56,2.08,1.04,3.12,2.6,3.12,4.67,0,.73-.09,1.29-.28,1.65s-.28.8-.28,1.29c0,.85.18,1.53.55,2.01.37.49.55,1.04.55,1.65,0,.25-.09.58-.28,1.01-.18.43-.28.77-.28,1.01,0,1.83.49,3.39,1.47,4.67.98,1.28,2.23,2.38,3.76,3.3,1.53.92,3.27,1.59,5.22,2.02,1.95.43,3.91.64,5.87.64,3.91,0,7.48-.92,10.72-2.75,3.24-1.83,6.14-4.27,8.7-7.33,1.47-1.59,2.69-3.24,3.66-4.95.98-1.71,1.47-3.85,1.47-6.41,0-1.47-.37-2.84-1.1-4.12-.73-1.28-1.1-2.59-1.1-3.94,0-.61.09-.94.28-1.01.18-.06.28-.21.28-.46,0-1.95-.52-3.57-1.56-4.86-1.04-1.28-2.35-2.41-3.94-3.39-1.59-.98-3.33-1.89-5.22-2.75-1.89-.85-3.76-1.77-5.59-2.75-.49-.24-.89-.67-1.19-1.28-.31-.61-.77-1.04-1.38-1.29-1.22-.61-2.45-.94-3.66-1.01-1.22-.06-2.38-.58-3.48-1.55-.98-.61-1.65-1.25-2.02-1.92-.37-.67-1.04-1.38-2.01-2.11-1.35-.61-2.54-.95-3.57-1.01-1.04-.06-2.23-.58-3.57-1.56-.73-.85-1.38-1.59-1.93-2.2-.55-.61-1.07-1.4-1.56-2.38-.98-1.22-2.17-2.2-3.57-2.93-1.41-.73-2.11-2.02-2.11-3.85v-4.58c0-.73-.06-1.47-.18-2.2-.12-.73-.18-1.53-.18-2.38,0-.49.06-.88.18-1.19.12-.3.18-.7.18-1.19,0-.61.09-1.13.28-1.56.18-.43.28-.76.28-1.01Z"/>
  <path class="cls-1" d="M783.72,13.74h4.21c.37.12.79.3,1.28.55.37.25.85.49,1.47.73.61.25,1.22.49,1.83.73.61-1.59,1.16-2.87,1.65-3.85s.92-1.83,1.28-2.56c.37-.73.76-1.47,1.19-2.2.43-.73.88-1.77,1.37-3.12.73,0,1.71-.18,2.93-.55,1.22-.37,2.41-.8,3.57-1.29,1.16-.48,2.23-.94,3.21-1.37.98-.43,1.65-.7,2.02-.82.85,0,1.74.49,2.66,1.47s1.74,2.02,2.47,3.11c-.25.98-.55,1.8-.92,2.47-.37.67-.73,1.29-1.1,1.84-.37.55-.73,1.16-1.1,1.83-.37.67-.67,1.5-.92,2.47-.49.73-.89,1.25-1.19,1.56-.31.3-.61.55-.92.73-.31.18-.64.43-1.01.73-.37.3-.86.82-1.47,1.55,0,.49-.03,1.07-.09,1.74-.06.67-.21,1.25-.46,1.74.73.62,1.47,1.1,2.2,1.47.73.37,1.34.92,1.83,1.65.49.37.98.95,1.47,1.74.49.79,1.01,1.62,1.56,2.47.55.85,1.07,1.65,1.56,2.38.49.73,1.04,1.22,1.65,1.47,4.27,3.54,6.93,7.03,7.97,10.44,1.04,3.42,1.56,6.41,1.56,8.98v17.41c0,1.22-.55,3.18-1.65,5.86-1.1,2.69-2.32,5.47-3.66,8.34-1.34,2.87-2.69,5.59-4.03,8.16-1.35,2.56-2.26,4.27-2.75,5.13-.86,2.57-2.35,4.61-4.49,6.14-2.14,1.53-4.06,2.72-5.77,3.57-3.54,2.45-6.78,4.74-9.71,6.87-2.93,2.14-6.17,3.21-9.71,3.21-1.47,0-2.87-.09-4.21-.28-1.34-.18-3.3-.27-5.86-.27-.49,0-1.1.03-1.83.09-.73.06-1.53.15-2.38.27-.98.12-1.95.18-2.93.18h-3.11c-.98,0-2.17-.18-3.57-.55s-2.78-.85-4.12-1.47c-1.59-.49-3.24-1.16-4.95-2.02h-1.1c-.49,1.71-.92,2.96-1.28,3.76-.37.8-.8,1.5-1.28,2.11-.49.61-1.1,1.34-1.83,2.2-.73.85-1.65,2.07-2.75,3.66-.98,1.34-2.2,2.17-3.66,2.47s-2.63.33-3.48.09l-1.47-2.57c.73-2.57,1.43-4.4,2.11-5.5.67-1.1,1.49-2.14,2.47-3.11.12-.61.24-1.07.37-1.37.12-.3.24-.55.37-.73.12-.18.24-.43.37-.73.12-.3.24-.76.37-1.38.24-.48.58-.97,1.01-1.47.43-.48.76-.97,1.01-1.47-2.08-1.34-3.94-2.75-5.59-4.21-1.65-1.47-2.96-3.48-3.94-6.05-2.57-5.86-4.92-12.15-7.06-18.88-2.14-6.71-3.21-13.13-3.21-19.24,0-1.22.09-2.32.28-3.3.18-.98.43-1.92.73-2.84.3-.92.67-1.92,1.1-3.02.43-1.1.88-2.5,1.37-4.21,0-1.71.33-3.45,1.01-5.22.67-1.77,1.38-3.39,2.11-4.86,0-.48.55-1.71,1.65-3.66,1.1-1.95,2.47-4.03,4.12-6.23,1.65-2.2,3.39-4.15,5.22-5.86,1.83-1.71,3.42-2.57,4.76-2.57l5.13-2.56c1.34,0,2.63-.06,3.85-.18,1.22-.12,2.5-.61,3.85-1.47,1.59-.49,2.99-.95,4.21-1.37,1.22-.43,2.5-.64,3.85-.64h11.73l6.6,1.65ZM761.37,26.39c-2.08,0-4.09,1.44-6.05,4.31-1.96,2.87-3.76,6.08-5.41,9.62-1.65,3.54-2.96,6.99-3.94,10.35-.98,3.36-1.47,5.47-1.47,6.32v14.29c0,1.47.79,3.6,2.38,6.41,1.59,2.81,3.54,5.74,5.86,8.8.85-1.47,1.83-3.12,2.93-4.95,1.1-1.83,2.17-3.57,3.21-5.22,1.04-1.65,1.89-3.12,2.57-4.4.67-1.29,1.01-2.17,1.01-2.66,1.34-1.47,2.75-3.48,4.21-6.05s2.93-5.22,4.4-7.97c1.47-2.75,2.84-5.37,4.12-7.88,1.28-2.5,2.47-4.42,3.57-5.77.98-1.71,1.89-3.39,2.75-5.04.85-1.65,1.95-3.32,3.3-5.04-1.35-.73-2.63-1.44-3.85-2.11-1.22-.67-2.5-1.01-3.85-1.01h-3.48c-1.83,0-4.28-.3-7.33-.92-1.59-.37-3.24-.73-4.95-1.1ZM804.25,60.1c0-2.32-.31-4.22-.92-5.68-.61-1.47-1.44-2.87-2.47-4.21-1.04-1.34-2.23-2.84-3.57-4.49-1.34-1.65-2.81-3.82-4.4-6.51-1.47,2.08-2.96,4.37-4.49,6.87-1.53,2.5-2.93,4.95-4.21,7.33-1.28,2.38-2.5,4.58-3.66,6.6-1.16,2.02-2.11,3.57-2.84,4.67-.25.98-.92,2.6-2.02,4.86-1.1,2.26-2.29,4.58-3.57,6.96-1.28,2.38-2.57,4.55-3.85,6.51s-2.23,3.12-2.84,3.48c0,.98-.25,1.83-.73,2.57-.49.73-1.04,1.4-1.65,2.02-.61.61-1.16,1.22-1.65,1.83-.49.61-.8,1.22-.92,1.83,2.44,2.32,5.01,4.25,7.7,5.77,2.69,1.53,5.19,2.29,7.51,2.29h3.11c2.57,0,5.32-.64,8.25-1.92,2.93-1.29,5.68-3.09,8.24-5.41,2.57-2.32,4.7-5.04,6.41-8.16,1.71-3.11,2.57-6.44,2.57-9.98v-17.22Z"/>
  <path class="cls-1" d="M888.17,14.11c1.71,0,3.33.49,4.86,1.47,1.53.98,2.29,2.38,2.29,4.21v3.48c-1.34.98-2.63,1.84-3.85,2.57-.98.61-1.96,1.19-2.93,1.74-.98.55-1.65.82-2.02.82h-5.5c-2.56,0-4.58.73-6.05,2.2s-2.2,3.48-2.2,6.05v5.5c0,3.3-.4,6.9-1.19,10.81-.8,3.91-1.56,7.64-2.29,11.18v27.49c0,.37.09,1,.28,1.92.18.92.49,1.83.92,2.75.43.92.94,1.71,1.56,2.38.61.67,1.4,1.01,2.38,1.01h15.76c.37,0,1.37-.37,3.02-1.1,1.65-.73,3.45-1.59,5.41-2.56,1.95-.98,3.88-2.02,5.77-3.12,1.89-1.1,3.27-2.02,4.12-2.75.98-.85,1.95-1.68,2.93-2.47.98-.8,1.89-1.19,2.75-1.19.73-1.71,1.25-2.72,1.56-3.02.3-.3.94-.46,1.92-.46.73,0,1.77.4,3.12,1.19,1.34.79,2.02,1.55,2.02,2.29,0,.37-.52,1.8-1.56,4.31-1.04,2.5-2.29,5.31-3.76,8.43s-3.05,6.11-4.76,8.98c-1.71,2.87-3.3,4.79-4.76,5.77-.37.49-1.44.82-3.21,1.01-1.77.18-3.64.33-5.59.46-2.2.12-4.71.18-7.51.18h-8.61c-2.56,0-5.13-.25-7.7-.73-2.56-.48-4.28-.43-5.13.18l-2.38.55-8.8,2.02c-.37,0-1.13-.09-2.29-.28-1.16-.18-2.41-.43-3.76-.73-1.34-.31-2.6-.55-3.76-.73-1.16-.18-1.92-.27-2.29-.27-.98,0-1.9.12-2.75.37-.86.24-1.59.49-2.2.73-.73.37-1.47.67-2.2.92-1.35,0-2.35-.31-3.02-.92-.67-.62-1.16-1.35-1.47-2.2-.31-.85-.49-1.71-.55-2.57-.06-.85-.09-1.52-.09-2.02,0-2.56.82-4.15,2.47-4.76,1.65-.61,3.45-1.13,5.41-1.56,1.95-.43,3.76-1.16,5.41-2.2,1.65-1.04,2.47-3.27,2.47-6.69v-15.39l1.47-13.74v-6.59c0-.49.06-1.44.18-2.84.12-1.4.3-2.9.55-4.49.24-1.84.55-3.79.92-5.86,0-.98-.28-1.89-.83-2.75-.55-.85-.82-1.65-.82-2.38v-2.02c0-3.42-.52-5.77-1.56-7.06-1.04-1.28-2.2-2.26-3.48-2.93-1.28-.67-2.45-1.44-3.48-2.29-1.04-.85-1.56-2.57-1.56-5.13,0-1.22.27-2.29.82-3.2s1.19-1.68,1.92-2.29,1.47-1.04,2.2-1.29c.73-.24,1.28-.37,1.65-.37h39.76Z"/>
</svg>