<?xml version="1.0" encoding="UTF-8"?>
<svg id="Layer_1" data-name="Layer 1" xmlns="http://www.w3.org/2000/svg" viewBox="0 0 1001.22 166.89">
  <defs>
    <style>
      .cls-1 {
        fill: #ba0c2f;
      }

      .cls-2 {
        fill: none;
        stroke: #ba0c2f;
        stroke-miterlimit: 10;
        stroke-width: 5px;
      }
    </style>
  </defs>
  <path class="cls-1" d="M81.35,132.82l-41.86,30.41c-4.61,3.35-10.8-1.16-9.04-6.57l15.99-49.21c.79-2.42-.08-5.07-2.14-6.57L2.43,70.47c-4.61-3.35-2.24-10.63,3.45-10.63h51.75c2.55,0,4.8-1.64,5.59-4.06l15.99-49.21c1.76-5.41,9.42-5.41,11.18,0l15.99,49.21c.79,2.42,3.04,4.06,5.59,4.06h51.75c5.69,0,8.06,7.29,3.45,10.63l-41.86,30.41c-2.06,1.5-2.92,4.15-2.14,6.57l15.99,49.21c1.76,5.41-4.44,9.92-9.04,6.57l-41.86-30.41c-2.06-1.5-4.85-1.5-6.91,0Z"/>
  <path class="cls-1" d="M288.63,132.82l-41.86,30.41c-4.61,3.35-10.8-1.16-9.04-6.57l15.99-49.21c.79-2.42-.08-5.07-2.14-6.57l-41.86-30.41c-4.61-3.35-2.24-10.63,3.45-10.63h51.75c2.55,0,4.8-1.64,5.59-4.06l15.99-49.21c1.76-5.41,9.42-5.41,11.18,0l15.99,49.21c.79,2.42,3.04,4.06,5.59,4.06h51.75c5.69,0,8.06,7.29,3.45,10.63l-41.86,30.41c-2.06,1.5-2.92,4.15-2.14,6.57l15.99,49.21c1.76,5.41-4.44,9.92-9.04,6.57l-41.86-30.41c-2.06-1.5-4.85-1.5-6.91,0Z"/>
  <path class="cls-1" d="M495.9,132.82l-41.86,30.41c-4.61,3.35-10.8-1.16-9.04-6.57l15.99-49.21c.79-2.42-.08-5.07-2.14-6.57l-41.86-30.41c-4.61-3.35-2.24-10.63,3.45-10.63h51.75c2.55,0,4.8-1.64,5.59-4.06l15.99-49.21c1.76-5.41,9.42-5.41,11.18,0l15.99,49.21c.79,2.42,3.04,4.06,5.59,4.06h51.75c5.69,0,8.06,7.29,3.45,10.63l-41.86,30.41c-2.06,1.5-2.92,4.15-2.14,6.57l15.99,49.21c1.76,5.41-4.44,9.92-9.04,6.57l-41.86-30.41c-2.06-1.5-4.85-1.5-6.91,0Z"/>
  <path class="cls-2" d="M703.18,132.82l-41.86,30.41c-4.61,3.35-10.8-1.16-9.04-6.57l15.99-49.21c.79-2.42-.08-5.07-2.14-6.57l-41.86-30.41c-4.61-3.35-2.24-10.63,3.45-10.63h51.75c2.55,0,4.8-1.64,5.59-4.06l15.99-49.21c1.76-5.41,9.42-5.41,11.18,0l15.99,49.21c.79,2.42,3.04,4.06,5.59,4.06h51.75c5.69,0,8.06,7.29,3.45,10.63l-41.86,30.41c-2.06,1.5-2.92,4.15-2.14,6.57l15.99,49.21c1.76,5.41-4.44,9.92-9.04,6.57l-41.86-30.41c-2.06-1.5-4.85-1.5-6.91,0Z"/>
  <path class="cls-2" d="M996.29,70.46l-41.87,30.42c-2.06,1.5-2.92,4.15-2.13,6.57l15.99,49.21c1.76,5.42-4.44,9.92-9.05,6.57l-41.86-30.41c-1.03-.75-2.24-1.12-3.45-1.12s-2.43.37-3.46,1.12l-41.86,30.41c-4.61,3.35-10.81-1.15-9.05-6.57l15.99-49.21c.79-2.42-.07-5.07-2.13-6.57l-41.86-30.42c-4.61-3.34-2.24-10.63,3.45-10.63h51.75c2.54,0,4.8-1.64,5.59-4.06l15.99-49.21c.88-2.71,3.23-4.06,5.59-4.06s4.71,1.35,5.59,4.06l15.99,49.21c.78,2.42,3.04,4.06,5.59,4.06h51.74c5.69,0,8.06,7.29,3.46,10.63Z"/>
  <path class="cls-1" d="M706.64,2.5v129.2c-1.22,0-2.43.37-3.46,1.12l-41.86,30.41c-4.61,3.35-10.81-1.15-9.05-6.57l15.99-49.21c.79-2.42-.07-5.07-2.13-6.57l-41.86-30.42c-4.61-3.34-2.24-10.63,3.45-10.63h51.75c2.54,0,4.8-1.64,5.59-4.06l15.99-49.21c.88-2.71,3.23-4.06,5.59-4.06Z"/>
</svg>