<?xml version="1.0" encoding="UTF-8"?>
<svg id="Layer_1" data-name="Layer 1" xmlns="http://www.w3.org/2000/svg" viewBox="0 0 998.72 161.89">
  <defs>
    <style>
      .cls-1 {
        fill: #ba0c2f;
      }
    </style>
  </defs>
  <path class="cls-1" d="M81.35,130.32l-41.86,30.41c-4.61,3.35-10.8-1.16-9.04-6.57l15.99-49.21c.79-2.42-.08-5.07-2.14-6.57L2.43,67.97c-4.61-3.35-2.24-10.63,3.45-10.63h51.75c2.55,0,4.8-1.64,5.59-4.06l15.99-49.21c1.76-5.41,9.42-5.41,11.18,0l15.99,49.21c.79,2.42,3.04,4.06,5.59,4.06h51.75c5.69,0,8.06,7.29,3.45,10.63l-41.86,30.41c-2.06,1.5-2.92,4.15-2.14,6.57l15.99,49.21c1.76,5.41-4.44,9.92-9.04,6.57l-41.86-30.41c-2.06-1.5-4.85-1.5-6.91,0Z"/>
  <path class="cls-1" d="M288.63,130.32l-41.86,30.41c-4.61,3.35-10.8-1.16-9.04-6.57l15.99-49.21c.79-2.42-.08-5.07-2.14-6.57l-41.86-30.41c-4.61-3.35-2.24-10.63,3.45-10.63h51.75c2.55,0,4.8-1.64,5.59-4.06l15.99-49.21c1.76-5.41,9.42-5.41,11.18,0l15.99,49.21c.79,2.42,3.04,4.06,5.59,4.06h51.75c5.69,0,8.06,7.29,3.45,10.63l-41.86,30.41c-2.06,1.5-2.92,4.15-2.14,6.57l15.99,49.21c1.76,5.41-4.44,9.92-9.04,6.57l-41.86-30.41c-2.06-1.5-4.85-1.5-6.91,0Z"/>
  <path class="cls-1" d="M495.9,130.32l-41.86,30.41c-4.61,3.35-10.8-1.16-9.04-6.57l15.99-49.21c.79-2.42-.08-5.07-2.14-6.57l-41.86-30.41c-4.61-3.35-2.24-10.63,3.45-10.63h51.75c2.55,0,4.8-1.64,5.59-4.06l15.99-49.21c1.76-5.41,9.42-5.41,11.18,0l15.99,49.21c.79,2.42,3.04,4.06,5.59,4.06h51.75c5.69,0,8.06,7.29,3.45,10.63l-41.86,30.41c-2.06,1.5-2.92,4.15-2.14,6.57l15.99,49.21c1.76,5.41-4.44,9.92-9.04,6.57l-41.86-30.41c-2.06-1.5-4.85-1.5-6.91,0Z"/>
  <path class="cls-1" d="M703.18,130.32l-41.86,30.41c-4.61,3.35-10.8-1.16-9.04-6.57l15.99-49.21c.79-2.42-.08-5.07-2.14-6.57l-41.86-30.41c-4.61-3.35-2.24-10.63,3.45-10.63h51.75c2.55,0,4.8-1.64,5.59-4.06l15.99-49.21c1.76-5.41,9.42-5.41,11.18,0l15.99,49.21c.79,2.42,3.04,4.06,5.59,4.06h51.75c5.69,0,8.06,7.29,3.45,10.63l-41.86,30.41c-2.06,1.5-2.92,4.15-2.14,6.57l15.99,49.21c1.76,5.41-4.44,9.92-9.04,6.57l-41.86-30.41c-2.06-1.5-4.85-1.5-6.91,0Z"/>
  <path class="cls-1" d="M910.46,130.32l-41.86,30.41c-4.61,3.35-10.8-1.16-9.04-6.57l15.99-49.21c.79-2.42-.08-5.07-2.14-6.57l-41.86-30.41c-4.61-3.35-2.24-10.63,3.45-10.63h51.75c2.55,0,4.8-1.64,5.59-4.06l15.99-49.21c1.76-5.41,9.42-5.41,11.18,0l15.99,49.21c.79,2.42,3.04,4.06,5.59,4.06h51.75c5.69,0,8.06,7.29,3.45,10.63l-41.86,30.41c-2.06,1.5-2.92,4.15-2.14,6.57l15.99,49.21c1.76,5.41-4.44,9.92-9.04,6.57l-41.86-30.41c-2.06-1.5-4.85-1.5-6.91,0Z"/>
</svg>