<?xml version="1.0" encoding="UTF-8"?>
<svg id="Layer_1" data-name="Layer 1" xmlns="http://www.w3.org/2000/svg" viewBox="0 0 1500 1500">
  <defs>
    <style>
      .cls-1 {
        fill: #fff;
      }
    </style>
  </defs>
  <g>
    <path class="cls-1" d="M720.75,510.66c-2.59-2.43-5.59-5.15-8.29-7.52-.46-.4-.46-.39-.01.02.39.36,1.14,1.04,1.84,1.68,2.31,2.11,5.74,5.33,8.05,7.33-.02-.04-.59-.58-1.36-1.3l-.23-.21ZM609.34,476.76c-2.39-.78-5.32-1.39-7.82-1.77,2.48.45,5.43,1.22,7.87,1.79l-.05-.02ZM510.43,448.4c-2.68-.86-5.94-1.47-8.72-1.66,2.73.28,6.08,1.04,8.77,1.68l-.04-.02Z"/>
    <path class="cls-1" d="M1160.98,392.27c-34.4-79.16-85.92-154.73-179.23-125.95-8.98,3.42-15.36,1.95-21.45-5.57-116.64-137.61-266.15-165.37-395.13-15.31-73.87-2.97-145.83,23.25-171.19,96.46-72.12,48.61-63.64,136.86,2.25,184.37-2.92,18.81-13.48,85.09-16.35,102.44-287.41-69.33-360.58,306.43-57.17,335.32-37.53,179.79-.76,327.57,213.39,338.51,244.8,22.51,458.65,149.37,544.29-95.42,8.54-44.59,63.18-394.67,86.05-535.7,117.7-43.92,122.91-219.15-5.45-279.13ZM335.71,890.27c-207.89-.76-167.65-250.95,29.86-186.83,2.33,16.72-18.19,147.12-29.86,186.83ZM1012,1185.76c-46.84,192.88-330.11,45.13-516.31,38.92-68.82-6.08-120.71-61.2-116.78-131.16,2.85-27.78,68.29-432.98,87.76-556.2,1.16-2.7-.8-5.44,2.95-6.86,9.41-3.05,19.86-10.18,29.07-3.4,23.2,18.37,53.4,22.73,80.06,19.34,27.21-.38,46.84,25.28,82.46,17.8,6.71-1.04,13.13.06,18.46,4.57,35.08,31,76.2,45.08,121.34,43.74,5.46-.03,9.31,1.54,8.44,7.75-13.1,63.58,39.02,140.22,105.73,155.06-5.05,27.29-46.52,292.48-61.62,385.58-5.2,40.08,46.03,59.15,66.42,23.27,14.72-28.36,54.25-389.08,72.64-410.52,44.41-12.36,81.43-46.68,98.86-89.13-7.07,44.87-64.01,407.44-79.49,501.23ZM926.02,778.06c.78.21,2.67.51,3.59.67-.53-.05-2.84-.45-3.6-.67h0ZM1182.47,558.7c-4.99,21.76-24.02,42.3-46.76,46.02-21.64,3.48-41.12-12.18-62.69-9.27-29.97,2.83-44.66,31.27-46.48,57.33-16.98,61.7-101.5,75.32-134.58,25.07-28.49-40.14,5.08-62.13-13.05-103.18-25.12-70.71-97.96-4.99-148.03-54.63-11.05-9.49-21.69-22.17-35.45-27.19-19.81-8.45-42.76,8.95-61.59-3.57-34.34-29.3-64.77,1.85-95.93-22.07-32.18-27.91-45.11-23.03-80.81-7.38-38.77,14.88-61.19-38.86-22.65-56.04,26.58-14.6,24.5-41.89,41.53-62.59,25.63-27.47,70.01-26.96,105.68-12.45,8.4,2.55,13.95-4.52,18.74-11.04,111.25-158.65,228.16-112.49,333.38,20.13,20.05,21.3,44.21,6.38,66.96-2.16,49.56-16.92,82.76,40.53,82.87,83.68,13.47,55.47,115.07,25.02,98.85,139.32Z"/>
  </g>
  <path class="cls-1" d="M1109,601.56c-.72-.29-5.94-1.92-2.76-.8,1.7.57,3.96,1.29,5.58,1.79.31.09.17.04-.31-.12-.74-.25-1.5-.52-2.23-.77l-.28-.1ZM914.86,775.7c-.8-.15-3.65-.85-3.93-.97,1.92.59,6.05,1.67,7.59,1.86-1.11-.26-2.29-.57-3.37-.83l-.28-.07ZM926.01,778.06c.76.22,2.67.57,3.6.67-.54-.1-2.82-.46-3.59-.67h0ZM549.37,476.41c-.69-.3-1.19-.59-1.17-.57,2.47,1.57,5.73,1.76,8.68,1.77.24,0,.79.02.96.03-1.13.03-6.52-.35-8.21-1.12l-.26-.11Z"/>
  <path class="cls-1" d="M496.67,1140.51c-17.73-2.56-30.68-19.37-29.89-36.98,2.95-25.8,68.67-429.21,72.51-455.59.5-2.87,2.43-8.5,4.43-11.97,19.62-33.96,69.76-17.8,66.69,21.42-17.74,112.56-53.89,336.76-72.39,452.9-3.39,19.17-21.31,33.58-41.07,30.27l-.27-.04Z"/>
  <path class="cls-1" d="M803.59,686.77c-7.81,52.99-29.59,185.13-41.38,259.96-15.64,97.46-29.48,184.33-31.29,195.21-7.45,40.04-66.35,38.84-70.77-2.16.12-26.79,68.87-432.1,72.16-460.44,6.91-44.46,73.76-38.09,71.28,7.27v.17Z"/>
  <g>
    <path class="cls-1" d="M918.64,776.63c-.68-.17-2.97-.47-3.7-.9.72.09,2.79.74,3.7.9h0Z"/>
    <path class="cls-1" d="M929.71,778.76c-.78-.1-2.7-.42-3.6-.67.53.15,2.81.54,3.6.67h0Z"/>
  </g>
</svg>