<?xml version="1.0" encoding="UTF-8"?>
<svg xmlns="http://www.w3.org/2000/svg" version="1.1" viewBox="0 0 533 243.2">
  <defs>
    <style>
      .cls-1 {
        fill: #010101;
      }
    </style>
  </defs>
  <!-- Generator: Adobe Illustrator 28.6.0, SVG Export Plug-In . SVG Version: 1.2.0 Build 709)  -->
  <g>
    <g id="Layer_1">
      <g id="Layer_1-2" data-name="Layer_1">
        <g>
          <path class="cls-1" d="M12.7,224c-16.6-16.6-16.9-41.3,0-57.9,16.6-16.6,41.3-16.3,57.9,0,16.6,16.6,16.9,41.3,0,57.9-16.9,16.9-41.6,16.3-57.9,0ZM57.2,179.6c-9.5-9.7-23.4-10-32.1-1.3-9,9-8.4,22.6,1.1,32.4,9.5,9.7,23.2,10.3,32.4,1.1,8.7-8.7,8.4-22.6-1.3-32.1Z"/>
          <path class="cls-1" d="M127,167.7c-13.4,13.4-29.5,12.9-41.1,1.3l12.6-12.6c5.3,5.3,11.8,6.1,17.9,0s5-8.4,1.3-12.1-10-2.1-18.7,1.8c-10.5,4.5-23.7,9.2-33.2,0-10.8-10.8-8.4-25,2.1-35.5,12.4-12.4,27.4-11.3,36.9-1.8l-11.6,11.6c-4.2-3.4-9.5-3.9-14.5,1.1-3.7,3.4-4.2,7.9-1.1,11.1,2.9,2.9,7.1,1.8,15.8-1.8,14.7-5.8,27.4-9.2,37.4,1.1,10.8,10.8,7.6,24.8-4.2,36.3h0l.3-.3Z"/>
          <path class="cls-1" d="M166.2,70.3c-16.6-16.6-16.9-41.3,0-57.9,16.6-16.6,41.3-16.3,57.9,0,16.6,16.6,16.9,41.3,0,57.9-16.9,16.9-41.6,16.3-57.9,0ZM210.4,26c-9.7-9.7-23.4-10-32.1-1.3-9,9-8.4,22.6,1.1,32.4s23.2,10.3,32.4,1.1c8.7-8.7,8.4-22.6-1.3-32.1Z"/>
          <path class="cls-1" d="M176.5,91.6l12.4,12.4-32.1,32.1-56.1-56.1,12.6-12.6,43.7,43.7s19.5-19.5,19.5-19.5Z"/>
          <path class="cls-1" d="M398.7,211.7l-12.6-12.6-43.7,43.4-12.6-12.6,43.7-43.7-12.6-12.6,11.6-11.6,37.7,37.7-11.6,11.6.3.5Z"/>
          <path class="cls-1" d="M320.2,197.5l-11.6,11.6-32.9-32.9,55.3-55.3,32.9,32.9-11.6,11.6-20.5-20.5-10,10,18.4,18.4-11.1,11.1-18.4-18.4-10.8,10.8,20.5,20.5h0l-.3.3Z"/>
          <path class="cls-1" d="M265.7,166.1l-12.4-12.4,30.3-30.5-41.1,20-11.3-11.3,20-41.3-30.5,30.8-12.4-12.4,55.3-55.3,16.3,16.3-25.3,49.8,49.5-25.5,16.6,16.6-55.3,55.3h.3Z"/>
        </g>
      </g>
    </g>
  </g>
</svg>