<?xml version="1.0" encoding="UTF-8"?>
<svg id="Layer_1" data-name="Layer 1" xmlns="http://www.w3.org/2000/svg" viewBox="0 0 532.99 62.39">
  <defs>
    <style>
      .cls-1 {
        fill: #010101;
      }
    </style>
  </defs>
  <path class="cls-1" d="M0,11.7C0,5.04,4.87,0,11.5,0s11.5,5.04,11.5,11.7-4.91,11.7-11.47,11.7S0,18.36,0,11.7ZM18.39,11.7c0-4.26-2.96-7.44-6.89-7.44s-6.92,3.18-6.92,7.44,2.96,7.44,6.95,7.44,6.86-3.18,6.86-7.44Z"/>
  <path class="cls-1" d="M34.06,23.4c-5.43,0-8.42-3.28-8.45-7.73h4.35c.03,2.31,1.3,3.96,4.19,3.96,1.82,0,3.35-.81,3.35-2.6s-1.27-2.63-4.58-3.77c-3.57-1.27-6.63-2.99-6.63-6.73,0-4.13,3.22-6.53,7.41-6.53,4.94,0,7.7,3.22,7.73,6.92h-4.03c-.16-1.66-1.27-3.15-3.7-3.15-1.79,0-2.99.97-2.99,2.44s1.27,2.37,4.19,3.48c4.29,1.62,7.08,3.44,7.08,7.38,0,4.26-3.38,6.34-7.93,6.34Z"/>
  <path class="cls-1" d="M61.38,18.81v4.26h-15.7V.32h4.65v18.49h11.05Z"/>
  <path class="cls-1" d="M62.62,11.7c0-6.66,4.87-11.7,11.5-11.7s11.5,5.04,11.5,11.7-4.91,11.7-11.47,11.7-11.54-5.04-11.54-11.7ZM81.01,11.7c0-4.26-2.96-7.44-6.89-7.44s-6.92,3.18-6.92,7.44,2.96,7.44,6.95,7.44,6.86-3.18,6.86-7.44Z"/>
  <path class="cls-1" d="M121.96,23.07h-4.22V7.41h-.36l-5.39,13.71h-4.32l-5.36-13.71h-.36v15.66h-4.26V.32h5.78l6.21,15.27h.36L116.17.32h5.78v22.75Z"/>
  <path class="cls-1" d="M141.94,19.08v4h-15.37V.32h15.05v4h-10.79v5.33h9.29v3.8h-9.29v5.62h11.11Z"/>
  <path class="cls-1" d="M160.66,4.35h-6.3v18.72h-4.35V4.35h-6.27V.32h16.93v4.03Z"/>
  <path class="cls-1" d="M175.96,23.07l-4.55-8.38h-3.35v8.38h-4.22V.32h8.45c4.48,0,7.6,2.73,7.6,7.12,0,2.99-1.66,5.33-4.26,6.5l5,9.13h-4.68ZM168.07,10.69h3.8c2.27,0,3.61-1.36,3.61-3.18,0-1.92-1.33-3.15-3.61-3.15h-3.8v6.34Z"/>
  <path class="cls-1" d="M182.49,11.7c0-6.66,4.87-11.7,11.5-11.7s11.5,5.04,11.5,11.7-4.91,11.7-11.47,11.7-11.54-5.04-11.54-11.7ZM200.89,11.7c0-4.26-2.96-7.44-6.89-7.44s-6.92,3.18-6.92,7.44,2.96,7.44,6.95,7.44,6.86-3.18,6.86-7.44Z"/>
  <path class="cls-1" d="M225.65,7.64c0,4.58-2.86,7.41-7.9,7.41h-4.39v8.03h-4.22V.32h8.74c4.94,0,7.77,3.05,7.77,7.31ZM221.23,7.64c0-1.95-1.3-3.38-3.67-3.38h-4.19v6.86h4.06c2.53,0,3.8-1.37,3.8-3.48Z"/>
  <path class="cls-1" d="M228.31,11.7c0-6.66,4.87-11.7,11.5-11.7s11.5,5.04,11.5,11.7-4.91,11.7-11.47,11.7-11.54-5.04-11.54-11.7ZM246.7,11.7c0-4.26-2.96-7.44-6.89-7.44s-6.92,3.18-6.92,7.44,2.96,7.44,6.95,7.44,6.86-3.18,6.86-7.44Z"/>
  <path class="cls-1" d="M270.69,18.81v4.26h-15.7V.32h4.65v18.49h11.05Z"/>
  <path class="cls-1" d="M278.06,23.07h-4.58V.32h4.58v22.75Z"/>
  <path class="cls-1" d="M297.95,4.35h-6.3v18.72h-4.35V4.35h-6.27V.32h16.93v4.03Z"/>
  <path class="cls-1" d="M311.76,18.07h-8.61l-1.59,5h-4.68l7.7-22.75h5.78l7.67,22.75h-4.68l-1.59-5ZM310.56,14.3l-2.92-9.2h-.36l-2.92,9.2h6.21Z"/>
  <path class="cls-1" d="M339.32.32v22.75h-4.22l-9.91-14.79h-.36v14.79h-4.26V.32h4.52l9.65,14.69h.36V.32h4.22Z"/>
  <path class="cls-1" d="M370.61,13.65c0,6.79-4.13,9.75-9.26,9.75s-9.36-2.96-9.36-9.75V.32h4.61v13.49c0,3.35,1.82,5.39,4.78,5.39s4.65-2.05,4.65-5.39V.32h4.58v13.32Z"/>
  <path class="cls-1" d="M394,.32v22.75h-4.22l-9.91-14.79h-.36v14.79h-4.26V.32h4.52l9.65,14.69h.36V.32h4.22Z"/>
  <path class="cls-1" d="M403.17,23.07h-4.58V.32h4.58v22.75Z"/>
  <path class="cls-1" d="M426.17.32l-7.18,22.75h-6.11l-7.18-22.75h4.71l5.39,17.94h.36l5.33-17.94h4.68Z"/>
  <path class="cls-1" d="M444.05,19.08v4h-15.37V.32h15.05v4h-10.79v5.33h9.29v3.8h-9.29v5.62h11.11Z"/>
  <path class="cls-1" d="M459.42,23.07l-4.55-8.38h-3.35v8.38h-4.22V.32h8.45c4.48,0,7.6,2.73,7.6,7.12,0,2.99-1.66,5.33-4.26,6.5l5,9.13h-4.68ZM451.52,10.69h3.8c2.27,0,3.61-1.36,3.61-3.18,0-1.92-1.33-3.15-3.61-3.15h-3.8v6.34Z"/>
  <path class="cls-1" d="M474.56,23.4c-5.43,0-8.42-3.28-8.45-7.73h4.35c.03,2.31,1.3,3.96,4.19,3.96,1.82,0,3.35-.81,3.35-2.6s-1.27-2.63-4.58-3.77c-3.57-1.27-6.63-2.99-6.63-6.73,0-4.13,3.22-6.53,7.41-6.53,4.94,0,7.7,3.22,7.73,6.92h-4.03c-.16-1.66-1.27-3.15-3.7-3.15-1.79,0-2.99.97-2.99,2.44s1.27,2.37,4.19,3.48c4.29,1.62,7.08,3.44,7.08,7.38,0,4.26-3.38,6.34-7.93,6.34Z"/>
  <path class="cls-1" d="M490.74,23.07h-4.58V.32h4.58v22.75Z"/>
  <path class="cls-1" d="M510.63,4.35h-6.3v18.72h-4.35V4.35h-6.27V.32h16.93v4.03Z"/>
  <path class="cls-1" d="M532.99.32l-7.9,12.74v10.01h-4.61v-10.01l-7.93-12.74h5.17l4.87,7.96h.36l4.87-7.96h5.17Z"/>
  <path class="cls-1" d="M8.97,62.39c-5.49,0-8.06-3.09-8.22-6.95h2.37c.16,2.6,1.66,4.91,5.78,4.91,2.83,0,5.07-1.17,5.07-3.8,0-2.18-1.17-3.67-5.72-5.1-3.74-1.2-6.82-2.73-6.82-6.37s2.99-6.08,7.02-6.08c4.81,0,7.41,3.25,7.51,6.6h-2.24c-.16-2.05-1.56-4.52-5.33-4.52-2.83,0-4.58,1.72-4.58,3.87,0,2.37,1.92,3.41,5.52,4.55,4.65,1.49,7.02,3.57,7.02,7.02,0,3.96-3.18,5.88-7.38,5.88Z"/>
  <path class="cls-1" d="M34.8,41.4h-6.73v20.67h-2.27v-20.67h-6.73v-2.08h15.73v2.08Z"/>
  <path class="cls-1" d="M36.69,50.69c0-6.66,4.78-11.7,11.11-11.7s11.11,5.04,11.11,11.7-4.78,11.7-11.08,11.7-11.15-5.04-11.15-11.7ZM56.54,50.69c0-5.33-3.74-9.49-8.74-9.49s-8.74,4.16-8.74,9.49,3.77,9.49,8.77,9.49,8.71-4.16,8.71-9.49Z"/>
  <path class="cls-1" d="M77.14,62.07l-5.88-9.75h-5v9.75h-2.21v-22.75h7.28c4.55,0,7.34,2.57,7.34,6.47,0,3.09-1.95,5.39-5.07,6.21l6.14,10.07h-2.6ZM66.26,50.21h4.71c3.48,0,5.36-1.79,5.36-4.45,0-2.79-1.98-4.32-5.36-4.32h-4.71v8.77Z"/>
  <path class="cls-1" d="M98.53,55.93c0,4.16-3.15,6.14-7.18,6.14h-7.64v-22.75h6.73c4.26,0,7.08,1.95,7.08,5.62,0,2.99-1.66,4.42-3.41,5.07v.16c2.44.81,4.42,2.4,4.42,5.75ZM85.89,49.36h4.58c3.18,0,4.84-1.59,4.84-4.19s-2.01-3.87-4.74-3.87h-4.68v8.06ZM96.25,55.79c0-2.73-2.05-4.55-5.13-4.55h-5.23v8.84h5.2c2.92,0,5.17-1.43,5.17-4.29Z"/>
  <path class="cls-1" d="M118.93,39.32l-8.22,11.67v11.08h-2.4v-11.08l-8.22-11.67h2.79l6.5,9.16h.23l6.5-9.16h2.83Z"/>
  <path class="cls-1" d="M140.02,53.39c0,5.95-3.8,9-8.61,9s-8.71-3.05-8.71-9v-14.07h2.37v13.88c0,4.71,2.89,6.95,6.34,6.95s6.24-2.24,6.24-6.95v-13.88h2.37v14.07Z"/>
  <path class="cls-1" d="M164.13,39.32v22.75h-2.7l-12.93-19.14h-.23v19.14h-2.24v-22.75h2.79l12.8,19.04h.23v-19.04h2.27Z"/>
  <path class="cls-1" d="M172.52,62.07h-2.34v-22.75h2.34v22.75Z"/>
  <path class="cls-1" d="M195.65,39.32l-8.06,22.75h-3.25l-8.03-22.75h2.47l7.05,20.21h.26l7.08-20.21h2.47Z"/>
  <path class="cls-1" d="M213.79,59.95v2.11h-14.33v-22.75h14.01v2.11h-11.8v8.09h10.53v2.05h-10.53v8.38h12.12Z"/>
  <path class="cls-1" d="M230.88,62.07l-5.88-9.75h-5v9.75h-2.21v-22.75h7.28c4.55,0,7.34,2.57,7.34,6.47,0,3.09-1.95,5.39-5.07,6.21l6.14,10.07h-2.6ZM219.99,50.21h4.71c3.48,0,5.36-1.79,5.36-4.45,0-2.79-1.98-4.32-5.36-4.32h-4.71v8.77Z"/>
  <path class="cls-1" d="M244.85,62.39c-5.49,0-8.06-3.09-8.22-6.95h2.37c.16,2.6,1.66,4.91,5.78,4.91,2.83,0,5.07-1.17,5.07-3.8,0-2.18-1.17-3.67-5.72-5.1-3.74-1.2-6.82-2.73-6.82-6.37s2.99-6.08,7.02-6.08c4.81,0,7.41,3.25,7.51,6.6h-2.24c-.16-2.05-1.56-4.52-5.33-4.52-2.83,0-4.58,1.72-4.58,3.87,0,2.37,1.92,3.41,5.52,4.55,4.65,1.49,7.02,3.57,7.02,7.02,0,3.96-3.18,5.88-7.38,5.88Z"/>
  <path class="cls-1" d="M259.73,62.07h-2.34v-22.75h2.34v22.75Z"/>
  <path class="cls-1" d="M279.52,41.4h-6.73v20.67h-2.27v-20.67h-6.73v-2.08h15.73v2.08Z"/>
  <path class="cls-1" d="M297.98,59.95v2.11h-14.33v-22.75h14.01v2.11h-11.8v8.09h10.53v2.05h-10.53v8.38h12.12Z"/>
  <path class="cls-1" d="M316.47,41.4h-6.73v20.67h-2.27v-20.67h-6.73v-2.08h15.73v2.08Z"/>
  <path class="cls-1" d="M334.93,59.95v2.11h-14.33v-22.75h14.01v2.11h-11.8v8.09h10.53v2.05h-10.53v8.38h12.12Z"/>
  <path class="cls-1" d="M353.42,41.4h-6.73v20.67h-2.27v-20.67h-6.73v-2.08h15.73v2.08Z"/>
</svg>